<?xml version="1.0" standalone="no"?>
<!DOCTYPE svg PUBLIC "-//W3C//DTD SVG 20010904//EN"
 "http://www.w3.org/TR/2001/REC-SVG-20010904/DTD/svg10.dtd">
<svg version="1.0" xmlns="http://www.w3.org/2000/svg"
 width="50.000000pt" height="50.000000pt" viewBox="0 0 50.000000 50.000000"
 preserveAspectRatio="xMidYMid meet">

<g transform="translate(0.000000,50.000000) scale(0.100000,-0.100000)"
fill="#fff" stroke="none">
<path d="M41 436 c-8 -9 -11 -70 -9 -197 l3 -184 215 0 215 0 3 184 c2 127 -1
188 -9 197 -17 20 -401 20 -418 0z m409 -31 l0 -25 -200 0 -200 0 0 25 0 25
200 0 200 0 0 -25z m0 -190 l0 -145 -200 0 -200 0 0 145 0 145 200 0 200 0 0
-145z"/>
<path d="M110 286 c0 -13 -7 -26 -15 -30 -8 -3 -15 -15 -15 -26 0 -11 7 -23
15 -26 10 -4 15 -20 15 -45 0 -21 5 -39 10 -39 6 0 10 18 10 39 0 25 5 41 15
45 8 3 15 15 15 26 0 11 -7 23 -15 26 -8 4 -15 17 -15 30 0 13 -4 24 -10 24
-5 0 -10 -11 -10 -24z m30 -56 c0 -5 -9 -10 -20 -10 -11 0 -20 5 -20 10 0 6 9
10 20 10 11 0 20 -4 20 -10z"/>
<path d="M240 261 c0 -34 -4 -51 -15 -55 -8 -3 -15 -15 -15 -26 0 -11 7 -23
15 -26 8 -4 15 -12 15 -20 0 -8 5 -14 10 -14 6 0 10 6 10 14 0 8 7 16 15 20 8
3 15 15 15 26 0 11 -7 23 -15 26 -11 4 -15 21 -15 55 0 27 -4 49 -10 49 -5 0
-10 -22 -10 -49z m30 -81 c0 -5 -9 -10 -20 -10 -11 0 -20 5 -20 10 0 6 9 10
20 10 11 0 20 -4 20 -10z"/>
<path d="M370 286 c0 -13 -7 -26 -15 -30 -8 -3 -15 -15 -15 -26 0 -11 7 -23
15 -26 10 -4 15 -20 15 -45 0 -21 5 -39 10 -39 6 0 10 18 10 39 0 25 5 41 15
45 8 3 15 15 15 26 0 11 -7 23 -15 26 -8 4 -15 17 -15 30 0 13 -4 24 -10 24
-5 0 -10 -11 -10 -24z m30 -56 c0 -5 -9 -10 -20 -10 -11 0 -20 5 -20 10 0 6 9
10 20 10 11 0 20 -4 20 -10z"/>
</g>
</svg>
